<svg width="80" height="81" viewBox="0 0 80 81" fill="none" xmlns="http://www.w3.org/2000/svg">
<g id="Logo">
<path id="Logo_2" fill-rule="evenodd" clip-rule="evenodd" d="M12.652 10.7107C10.5592 8.14142 6.77993 7.75516 4.21069 9.84792C1.64145 11.9407 1.25519 15.72 3.34795 18.2892L46.1087 70.7857H72C75.3137 70.7857 78 68.0994 78 64.7857C78 61.472 75.3137 58.7857 72 58.7857H51.8113L12.652 10.7107ZM23.1767 60.328C25.7643 58.258 26.1838 54.4822 24.1138 51.8946C22.0437 49.3071 18.268 48.8875 15.6804 50.9576L4.25181 60.1004C1.66423 62.1705 1.24471 65.9463 3.31476 68.5338C5.38482 71.1214 9.16058 71.5409 11.7481 69.4709L23.1767 60.328Z" fill="white"/>
</g>
</svg>
